<svg xmlns="http://www.w3.org/2000/svg" version="1.1" xmlns:xlink="http://www.w3.org/1999/xlink" xmlns:svgjs="http://svgjs.dev/svgjs" width="1000" height="1000" viewBox="0 0 1000 1000"><rect width="1000" height="1000" fill="#000000"></rect><g transform="matrix(0.7,0,0,0.7,149.57575757575756,302.56267871995436)"><svg viewBox="0 0 396 224" data-background-color="#000000" preserveAspectRatio="xMidYMid meet" height="565" width="1000" xmlns="http://www.w3.org/2000/svg" xmlns:xlink="http://www.w3.org/1999/xlink"><defs></defs><g id="tight-bounds" transform="matrix(1,0,0,1,0.2400000000000091,-0.17709237236351782)"><svg viewBox="0 0 395.52 224.35418474472704" height="224.35418474472704" width="395.52"><g><svg viewBox="0 0 395.52 224.35418474472704" height="224.35418474472704" width="395.52"><g transform="matrix(1,0,0,1,0,135.4568963395388)"><svg viewBox="0 0 395.52 88.89728840518825" height="88.89728840518825" width="395.52"><g><svg viewBox="0 0 395.52 88.89728840518825" height="88.89728840518825" width="395.52"><g><svg viewBox="0 0 395.52 53.37621682665161" height="53.37621682665161" width="395.52"><g transform="matrix(1,0,0,1,0,0)"><svg width="395.52" viewBox="0.75 -35.7 354.17 47.800000000000004" height="53.37621682665161" data-palette-color="#ffffff"><path d="M15.7 0L10.95 0 10.95-30.7 0.75-30.7 0.75-35 25.9-35 25.9-30.7 15.7-30.7 15.7 0ZM30.1 0L25.3 0 25.3-24.5 29-24.5 29.55-20.45Q31.42-22.78 33.13-23.89 34.85-25 36.8-25L36.8-25Q37.42-25 37.95-24.85L37.95-24.85 37.5-19.9Q37.17-19.98 36.81-20.01 36.45-20.05 36-20.05L36-20.05Q34.05-20.05 32.41-19.19 30.77-18.32 30.1-17.3L30.1-17.3 30.1 0ZM52.2 0.5L52.2 0.5Q47.87 0.5 44.92-1.28 41.97-3.05 40.46-5.99 38.95-8.93 38.95-12.45L38.95-12.45Q38.95-15.88 40.36-18.73 41.77-21.58 44.46-23.29 47.15-25 50.95-25L50.95-25Q54-25 56.38-23.79 58.77-22.58 60.13-20.26 61.5-17.95 61.5-14.65L61.5-14.65Q61.5-14.13 61.46-13.51 61.42-12.9 61.3-12.25L61.3-12.25 43.55-12.25Q43.87-8.85 45.17-6.95 46.47-5.05 48.45-4.28 50.42-3.5 52.75-3.5L52.75-3.5Q54.45-3.5 56.3-3.85 58.15-4.2 59.8-4.95L59.8-4.95 60.4-1.4Q58.97-0.78 56.92-0.14 54.87 0.5 52.2 0.5ZM43.95-15.35L43.95-15.35 56.85-15.35Q56.85-17.07 56.2-18.35 55.55-19.63 54.22-20.31 52.9-21 50.85-21L50.85-21Q47.85-21 46.23-19.51 44.62-18.03 43.95-15.35ZM77.64 0L72.59 0 63.24-24.5 68.24-24.5 75.09-4.95 81.89-24.5 86.94-24.5 77.64 0ZM100.69 0.5L100.69 0.5Q96.84 0.5 94.13-1.21 91.42-2.93 89.98-5.81 88.54-8.7 88.54-12.25L88.54-12.25Q88.54-15.8 89.98-18.69 91.42-21.58 94.13-23.29 96.84-25 100.69-25L100.69-25Q104.52-25 107.24-23.29 109.97-21.58 111.4-18.69 112.84-15.8 112.84-12.25L112.84-12.25Q112.84-8.7 111.4-5.81 109.97-2.93 107.24-1.21 104.52 0.5 100.69 0.5ZM100.69-3.5L100.69-3.5Q104.34-3.5 106.29-5.81 108.24-8.13 108.24-12.25L108.24-12.25Q108.24-16.38 106.29-18.69 104.34-21 100.69-21L100.69-21Q97.07-21 95.1-18.69 93.14-16.38 93.14-12.25L93.14-12.25Q93.14-8.13 95.1-5.81 97.07-3.5 100.69-3.5ZM122.29 0L117.49 0 117.49-24.5 121.19-24.5 121.74-20.45Q123.61-22.78 125.33-23.89 127.04-25 128.99-25L128.99-25Q129.61-25 130.14-24.85L130.14-24.85 129.69-19.9Q129.36-19.98 129-20.01 128.64-20.05 128.19-20.05L128.19-20.05Q126.24-20.05 124.6-19.19 122.96-18.32 122.29-17.3L122.29-17.3 122.29 0ZM161.08 0.7L161.08 0.7Q155.98 0.7 152-1.54 148.01-3.78 145.72-7.86 143.43-11.95 143.43-17.5L143.43-17.5Q143.43-23.05 145.75-27.14 148.06-31.23 152.1-33.46 156.13-35.7 161.28-35.7L161.28-35.7Q163.96-35.7 166.38-35.13 168.81-34.55 170.63-33.65L170.63-33.65 170.13-29.25Q168.26-30.15 166.01-30.78 163.76-31.4 161.23-31.4L161.23-31.4Q157.11-31.4 154.31-29.54 151.51-27.68 150.07-24.53 148.63-21.38 148.63-17.5L148.63-17.5Q148.63-13.63 150.05-10.48 151.46-7.33 154.25-5.46 157.03-3.6 161.13-3.6L161.13-3.6Q163.73-3.6 165.95-4.16 168.16-4.73 170.13-5.7L170.13-5.7 170.63-1.3Q168.76-0.45 166.41 0.13 164.06 0.7 161.08 0.7ZM185.33 0.5L185.33 0.5Q181.48 0.5 178.77-1.21 176.06-2.93 174.62-5.81 173.18-8.7 173.18-12.25L173.18-12.25Q173.18-15.8 174.62-18.69 176.06-21.58 178.77-23.29 181.48-25 185.33-25L185.33-25Q189.16-25 191.88-23.29 194.61-21.58 196.04-18.69 197.48-15.8 197.48-12.25L197.48-12.25Q197.48-8.7 196.04-5.81 194.61-2.93 191.88-1.21 189.16 0.5 185.33 0.5ZM185.33-3.5L185.33-3.5Q188.98-3.5 190.93-5.81 192.88-8.13 192.88-12.25L192.88-12.25Q192.88-16.38 190.93-18.69 188.98-21 185.33-21L185.33-21Q181.71-21 179.74-18.69 177.78-16.38 177.78-12.25L177.78-12.25Q177.78-8.13 179.74-5.81 181.71-3.5 185.33-3.5ZM206.63 0L202.13 0 202.13-24.5 205.63-24.5 206.53-19.8 204.83-20.6Q207.13-23.08 209.3-24.04 211.48-25 213.88-25L213.88-25Q215.68-25 217.34-24.41 219-23.83 220.34-22.36 221.68-20.9 222.48-18.3L222.48-18.3 221.23-18.85Q222.33-21.7 224.6-23.35 226.88-25 230.73-25L230.73-25Q233.8-25 235.9-23.86 238-22.73 239.07-20.39 240.13-18.05 240.13-14.45L240.13-14.45 240.13 0 235.63 0 235.63-14.4Q235.63-17.85 234.28-19.43 232.93-21 229.88-21L229.88-21Q227.73-21 226.43-20.34 225.13-19.68 224.47-18.63 223.8-17.57 223.59-16.4 223.38-15.23 223.38-14.2L223.38-14.2 223.38 0 218.88 0 218.88-13.5Q218.88-16.5 218.15-18.13 217.43-19.75 216.13-20.38 214.83-21 213.13-21L213.13-21Q210.65-21 208.7-19.91 206.75-18.82 206.08-16.45L206.08-16.45 206.63-18.9 206.63 0ZM250.48 12.1L245.98 12.1 245.98-24.5 249.48-24.5 250.28-18.9 249.03-19.8Q250.58-22.2 252.85-23.6 255.13-25 258.43-25L258.43-25Q261.78-25 264.18-23.3 266.58-21.6 267.85-18.71 269.13-15.83 269.13-12.25L269.13-12.25Q269.13-8.68 267.93-5.79 266.73-2.9 264.35-1.2 261.98 0.5 258.43 0.5L258.43 0.5Q255.5 0.5 253.14-0.71 250.78-1.93 249.73-4.35L249.73-4.35 250.48-5.25 250.48 12.1ZM257.58-3.5L257.58-3.5Q260.85-3.5 262.69-5.81 264.53-8.13 264.53-12.25L264.53-12.25Q264.53-16.38 262.69-18.69 260.85-21 257.58-21L257.58-21Q255.55-21 253.89-20.04 252.23-19.07 251.23-17.14 250.23-15.2 250.23-12.25L250.23-12.25Q250.23-9.18 251.23-7.25 252.23-5.33 253.89-4.41 255.55-3.5 257.58-3.5ZM282.62 0.5L282.62 0.5Q279.75 0.5 277.72-0.66 275.7-1.83 274.64-4.2 273.57-6.58 273.57-10.25L273.57-10.25 273.57-24.5 278.07-24.5 278.07-11.5Q278.07-7.6 279.41-5.55 280.75-3.5 283.77-3.5L283.77-3.5Q285.85-3.5 287.62-4.5 289.4-5.5 290.07-7.7L290.07-7.7 289.42-5.25 289.42-24.5 293.92-24.5 293.92 0 289.92 0 289.02-4.8 290.22-4Q289-1.73 287.24-0.61 285.47 0.5 282.62 0.5ZM312.52 0.5L308.47 0.5Q306.15 0.5 304.75-0.35 303.35-1.2 302.71-2.54 302.07-3.88 302.07-5.35L302.07-5.35 302.07-21 297.87-21 298.27-24.5 302.07-24.5 302.07-30.55 306.57-31 306.57-24.5 313.02-24.5 313.02-21 306.57-21 306.57-8.1Q306.57-5.75 306.85-4.7 307.12-3.65 308.21-3.38 309.3-3.1 311.72-3.1L311.72-3.1 312.87-3.1 312.52 0.5ZM328.42 0.5L328.42 0.5Q324.09 0.5 321.14-1.28 318.19-3.05 316.68-5.99 315.17-8.93 315.17-12.45L315.17-12.45Q315.17-15.88 316.58-18.73 317.99-21.58 320.68-23.29 323.37-25 327.17-25L327.17-25Q330.22-25 332.61-23.79 334.99-22.58 336.36-20.26 337.72-17.95 337.72-14.65L337.72-14.65Q337.72-14.13 337.68-13.51 337.64-12.9 337.52-12.25L337.52-12.25 319.77-12.25Q320.09-8.85 321.39-6.95 322.69-5.05 324.67-4.28 326.64-3.5 328.97-3.5L328.97-3.5Q330.67-3.5 332.52-3.85 334.37-4.2 336.02-4.95L336.02-4.95 336.62-1.4Q335.19-0.78 333.14-0.14 331.09 0.5 328.42 0.5ZM320.17-15.35L320.17-15.35 333.07-15.35Q333.07-17.07 332.42-18.35 331.77-19.63 330.44-20.31 329.12-21 327.07-21L327.07-21Q324.07-21 322.46-19.51 320.84-18.03 320.17-15.35ZM347.07 0L342.27 0 342.27-24.5 345.97-24.5 346.52-20.45Q348.39-22.78 350.1-23.89 351.82-25 353.77-25L353.77-25Q354.39-25 354.92-24.85L354.92-24.85 354.47-19.9Q354.14-19.98 353.78-20.01 353.42-20.05 352.97-20.05L352.97-20.05Q351.02-20.05 349.38-19.19 347.74-18.32 347.07-17.3L347.07-17.3 347.07 0Z" opacity="1" transform="matrix(1,0,0,1,0,0)" fill="#ffffff" class="undefined-text-0" data-fill-palette-color="primary" id="text-0"></path></svg></g></svg></g><g transform="matrix(1,0,0,1,75.54432000000001,65.97706059022022)"><svg viewBox="0 0 244.43135999999996 22.92022781496803" height="22.92022781496803" width="244.43135999999996"><g transform="matrix(1,0,0,1,0,0)"><svg width="244.43135999999996" viewBox="2.35 -37.1 398.82 37.4" height="22.92022781496803" data-palette-color="#ffffff"><path d="M15.35 0.3Q11.45 0.3 7.88-0.95 4.3-2.2 2.35-4.25L2.35-4.25 3.8-7.1Q5.7-5.2 8.85-4.03 12-2.85 15.35-2.85L15.35-2.85Q20.05-2.85 22.4-4.58 24.75-6.3 24.75-9.05L24.75-9.05Q24.75-11.15 23.48-12.4 22.2-13.65 20.35-14.33 18.5-15 15.2-15.8L15.2-15.8Q11.25-16.8 8.9-17.73 6.55-18.65 4.88-20.55 3.2-22.45 3.2-25.7L3.2-25.7Q3.2-28.35 4.6-30.53 6-32.7 8.9-34 11.8-35.3 16.1-35.3L16.1-35.3Q19.1-35.3 21.98-34.48 24.85-33.65 26.95-32.2L26.95-32.2 25.7-29.25Q23.5-30.7 21-31.43 18.5-32.15 16.1-32.15L16.1-32.15Q11.5-32.15 9.18-30.38 6.85-28.6 6.85-25.8L6.85-25.8Q6.85-23.7 8.13-22.43 9.4-21.15 11.33-20.48 13.25-19.8 16.5-19L16.5-19Q20.35-18.05 22.73-17.13 25.1-16.2 26.75-14.33 28.4-12.45 28.4-9.25L28.4-9.25Q28.4-6.6 26.98-4.42 25.55-2.25 22.6-0.98 19.65 0.3 15.35 0.3L15.35 0.3ZM56.15-26.3L59.7-26.3 59.7 0 56.3 0 56.3-5.2Q54.7-2.55 52.07-1.15 49.45 0.25 46.15 0.25L46.15 0.25Q42.45 0.25 39.45-1.45 36.45-3.15 34.75-6.2 33.05-9.25 33.05-13.15L33.05-13.15Q33.05-17.05 34.75-20.1 36.45-23.15 39.45-24.83 42.45-26.5 46.15-26.5L46.15-26.5Q49.35-26.5 51.92-25.18 54.5-23.85 56.15-21.3L56.15-21.3 56.15-26.3ZM46.45-2.9Q49.2-2.9 51.42-4.17 53.65-5.45 54.92-7.8 56.2-10.15 56.2-13.15L56.2-13.15Q56.2-16.15 54.92-18.5 53.65-20.85 51.42-22.13 49.2-23.4 46.45-23.4L46.45-23.4Q43.65-23.4 41.42-22.13 39.2-20.85 37.92-18.5 36.65-16.15 36.65-13.15L36.65-13.15Q36.65-10.15 37.92-7.8 39.2-5.45 41.42-4.17 43.65-2.9 46.45-2.9L46.45-2.9ZM88.19-26.3L91.69-26.3 80 0 76.34 0 64.69-26.3 68.39-26.3 78.25-3.9 88.19-26.3ZM107.19-2.9Q109.64-2.9 111.72-3.78 113.79-4.65 115.24-6.35L115.24-6.35 117.24-4.05Q115.49-1.95 112.89-0.85 110.29 0.25 107.14 0.25L107.14 0.25Q103.09 0.25 99.94-1.48 96.79-3.2 95.04-6.25 93.29-9.3 93.29-13.15L93.29-13.15Q93.29-17 94.97-20.05 96.64-23.1 99.59-24.8 102.54-26.5 106.29-26.5L106.29-26.5Q109.79-26.5 112.62-24.9 115.44-23.3 117.12-20.45 118.79-17.6 118.89-13.95L118.89-13.95 97.29-9.75Q98.29-6.55 100.92-4.73 103.54-2.9 107.19-2.9L107.19-2.9ZM106.29-23.45Q103.54-23.45 101.37-22.18 99.19-20.9 97.97-18.63 96.74-16.35 96.74-13.4L96.74-13.4Q96.74-12.65 96.79-12.3L96.79-12.3 115.34-15.9Q114.74-19.2 112.29-21.33 109.84-23.45 106.29-23.45L106.29-23.45ZM154.29-35.3Q161.09-35.3 165.01-31.33 168.94-27.35 168.94-19.85L168.94-19.85 168.94 0 165.29 0 165.29-10.3 143.29-10.3 143.29 0 139.69 0 139.69-19.85Q139.69-27.35 143.61-31.33 147.54-35.3 154.29-35.3L154.29-35.3ZM143.29-13.5L165.29-13.5 165.29-20.2Q165.29-26.05 162.39-29.03 159.49-32 154.29-32L154.29-32Q149.09-32 146.19-29.03 143.29-26.05 143.29-20.2L143.29-20.2 143.29-13.5ZM192.69-26.5Q197.64-26.5 200.56-23.63 203.49-20.75 203.49-15.25L203.49-15.25 203.49 0 199.94 0 199.94-14.9Q199.94-19 197.89-21.15 195.84-23.3 192.04-23.3L192.04-23.3Q187.79-23.3 185.31-20.78 182.84-18.25 182.84-13.8L182.84-13.8 182.84 0 179.29 0 179.29-26.3 182.69-26.3 182.69-21.45Q184.14-23.85 186.71-25.18 189.29-26.5 192.69-26.5L192.69-26.5ZM233.68-37.1L237.23-37.1 237.23 0 233.83 0 233.83-5.2Q232.23-2.55 229.61-1.15 226.98 0.25 223.68 0.25L223.68 0.25Q219.98 0.25 216.98-1.45 213.98-3.15 212.28-6.2 210.58-9.25 210.58-13.15L210.58-13.15Q210.58-17.05 212.28-20.1 213.98-23.15 216.98-24.83 219.98-26.5 223.68-26.5L223.68-26.5Q226.88-26.5 229.46-25.18 232.03-23.85 233.68-21.3L233.68-21.3 233.68-37.1ZM223.98-2.9Q226.73-2.9 228.96-4.17 231.18-5.45 232.46-7.8 233.73-10.15 233.73-13.15L233.73-13.15Q233.73-16.15 232.46-18.5 231.18-20.85 228.96-22.13 226.73-23.4 223.98-23.4L223.98-23.4Q221.18-23.4 218.96-22.13 216.73-20.85 215.46-18.5 214.18-16.15 214.18-13.15L214.18-13.15Q214.18-10.15 215.46-7.8 216.73-5.45 218.96-4.17 221.18-2.9 223.98-2.9L223.98-2.9ZM270.63 0.3Q266.73 0.3 263.15-0.95 259.58-2.2 257.63-4.25L257.63-4.25 259.08-7.1Q260.98-5.2 264.13-4.03 267.28-2.85 270.63-2.85L270.63-2.85Q275.33-2.85 277.68-4.58 280.03-6.3 280.03-9.05L280.03-9.05Q280.03-11.15 278.75-12.4 277.48-13.65 275.63-14.33 273.78-15 270.48-15.8L270.48-15.8Q266.53-16.8 264.18-17.73 261.83-18.65 260.15-20.55 258.48-22.45 258.48-25.7L258.48-25.7Q258.48-28.35 259.88-30.53 261.28-32.7 264.18-34 267.08-35.3 271.38-35.3L271.38-35.3Q274.38-35.3 277.25-34.48 280.13-33.65 282.23-32.2L282.23-32.2 280.98-29.25Q278.78-30.7 276.28-31.43 273.78-32.15 271.38-32.15L271.38-32.15Q266.78-32.15 264.45-30.38 262.13-28.6 262.13-25.8L262.13-25.8Q262.13-23.7 263.4-22.43 264.68-21.15 266.6-20.48 268.53-19.8 271.78-19L271.78-19Q275.63-18.05 278-17.13 280.38-16.2 282.03-14.33 283.68-12.45 283.68-9.25L283.68-9.25Q283.68-6.6 282.25-4.42 280.83-2.25 277.88-0.98 274.93 0.3 270.63 0.3L270.63 0.3ZM304.38-26.5Q309.33-26.5 312.25-23.63 315.18-20.75 315.18-15.25L315.18-15.25 315.18 0 311.63 0 311.63-14.9Q311.63-19 309.58-21.15 307.53-23.3 303.73-23.3L303.73-23.3Q299.48-23.3 297-20.78 294.53-18.25 294.53-13.8L294.53-13.8 294.53 0 290.98 0 290.98-37.1 294.53-37.1 294.53-21.7Q295.98-24 298.53-25.25 301.08-26.5 304.38-26.5L304.38-26.5ZM345.37-26.3L348.92-26.3 348.92 0 345.52 0 345.52-5.2Q343.92-2.55 341.3-1.15 338.67 0.25 335.37 0.25L335.37 0.25Q331.67 0.25 328.67-1.45 325.67-3.15 323.97-6.2 322.27-9.25 322.27-13.15L322.27-13.15Q322.27-17.05 323.97-20.1 325.67-23.15 328.67-24.83 331.67-26.5 335.37-26.5L335.37-26.5Q338.57-26.5 341.15-25.18 343.72-23.85 345.37-21.3L345.37-21.3 345.37-26.3ZM335.67-2.9Q338.42-2.9 340.65-4.17 342.87-5.45 344.15-7.8 345.42-10.15 345.42-13.15L345.42-13.15Q345.42-16.15 344.15-18.5 342.87-20.85 340.65-22.13 338.42-23.4 335.67-23.4L335.67-23.4Q332.87-23.4 330.65-22.13 328.42-20.85 327.15-18.5 325.87-16.15 325.87-13.15L325.87-13.15Q325.87-10.15 327.15-7.8 328.42-5.45 330.65-4.17 332.87-2.9 335.67-2.9L335.67-2.9ZM362.22-21.15Q363.47-23.8 365.95-25.15 368.42-26.5 372.07-26.5L372.07-26.5 372.07-23.05 371.22-23.1Q367.07-23.1 364.72-20.55 362.37-18 362.37-13.4L362.37-13.4 362.37 0 358.82 0 358.82-26.3 362.22-26.3 362.22-21.15ZM389.47-2.9Q391.92-2.9 393.99-3.78 396.07-4.65 397.52-6.35L397.52-6.35 399.52-4.05Q397.77-1.95 395.17-0.85 392.57 0.25 389.42 0.25L389.42 0.25Q385.37 0.25 382.22-1.48 379.07-3.2 377.32-6.25 375.57-9.3 375.57-13.15L375.57-13.15Q375.57-17 377.24-20.05 378.92-23.1 381.87-24.8 384.82-26.5 388.57-26.5L388.57-26.5Q392.07-26.5 394.89-24.9 397.72-23.3 399.39-20.45 401.07-17.6 401.17-13.95L401.17-13.95 379.57-9.75Q380.57-6.55 383.19-4.73 385.82-2.9 389.47-2.9L389.47-2.9ZM388.57-23.45Q385.82-23.45 383.64-22.18 381.47-20.9 380.24-18.63 379.02-16.35 379.02-13.4L379.02-13.4Q379.02-12.65 379.07-12.3L379.07-12.3 397.62-15.9Q397.02-19.2 394.57-21.33 392.12-23.45 388.57-23.45L388.57-23.45Z" opacity="1" transform="matrix(1,0,0,1,0,0)" fill="#ffffff" class="undefined-text-1" data-fill-palette-color="secondary" id="text-1"></path></svg></g></svg></g></svg></g></svg></g><g transform="matrix(1,0,0,1,136.3319737120149,0)"><svg viewBox="0 0 122.85605257597018 122.85605257597017" height="122.85605257597017" width="122.85605257597018"><g><svg></svg></g><g id="icon-0"><svg viewBox="0 0 122.85605257597018 122.85605257597017" height="122.85605257597017" width="122.85605257597018"><g><path d="M36.857 122.856c-20.355 0-36.857-16.501-36.857-36.857v-49.142c0-20.355 16.501-36.857 36.857-36.857h49.142c20.355 0 36.857 16.501 36.857 36.857v49.142c0 20.355-16.501 36.857-36.857 36.857z" fill="#ffffff" data-fill-palette-color="accent"></path></g><g transform="matrix(1,0,0,1,23.541165487985097,40.53190708235309)"><svg viewBox="0 0 75.77372159999999 41.792238411263995" height="41.792238411263995" width="75.77372159999999"><g><svg version="1.0" xmlns="http://www.w3.org/2000/svg" xmlns:xlink="http://www.w3.org/1999/xlink" x="0" y="0" viewBox="0 0 100 55.154" enable-background="new 0 0 100 55.154" xml:space="preserve" width="75.77372159999999" height="41.792238411263995" class="icon-li-0" data-fill-palette-color="quaternary" id="li-0"><path d="M77.959 55.154H11.282C5.061 55.154 0 50.093 0 43.873c0-5.278 3.643-9.721 8.546-10.946 2.188-5.469 7.248-9.386 13.149-10.089C22.317 10.14 32.843 0 45.693 0c9.417 0 17.822 5.536 21.723 13.756 3.203-1.75 6.812-2.682 10.543-2.682 12.153 0 22.041 9.887 22.041 22.04C100 45.267 90.113 55.154 77.959 55.154L77.959 55.154zM11.209 40.372c-1.897 0.039-3.429 1.595-3.429 3.501 0 1.931 1.57 3.501 3.501 3.501h66.678c7.863 0 14.26-6.397 14.26-14.26 0-7.863-6.396-14.259-14.26-14.259-3.683 0-7.18 1.404-9.847 3.952l-5.096 4.871-1.404-6.908C60.083 13.243 53.388 7.78 45.693 7.78c-8.958 0-16.247 7.288-16.247 16.246 0 0.728 0.054 1.483 0.159 2.246l0.73 5.287-5.256-0.923c-0.498-0.087-0.993-0.132-1.474-0.132-4.002 0-7.479 2.842-8.267 6.757l-0.65 3.227-3.29-0.106C11.336 40.379 11.272 40.375 11.209 40.372L11.209 40.372z" fill="#000000" data-fill-palette-color="quaternary"></path></svg></g></svg></g></svg></g></svg></g><g></g></svg></g></svg><rect width="395.52" height="224.35418474472704" fill="none" stroke="none" visibility="hidden"></rect></g></svg></g></svg>